<?xml version="1.0" encoding="UTF-8"?>
<svg id="Layer_1" data-name="Layer 1" xmlns="http://www.w3.org/2000/svg" xmlns:xlink="http://www.w3.org/1999/xlink" viewBox="0 0 483.31 146.47">
  <defs>
    <radialGradient id="radial-gradient" cx="76.19" cy="87.76" fx="76.19" fy="87.76" r="68" gradientTransform="translate(0 149.4) scale(1 -1)" gradientUnits="userSpaceOnUse">
      <stop offset=".17" stop-color="#00e4b8"/>
      <stop offset=".51" stop-color="#0085a8"/>
      <stop offset=".78" stop-color="#002d67"/>
    </radialGradient>
    <radialGradient id="radial-gradient-2" cx="100.65" cy="124.02" fx="100.65" fy="124.02" r="121.85" gradientTransform="translate(0 149.4) scale(1 -1)" gradientUnits="userSpaceOnUse">
      <stop offset=".17" stop-color="#00729a"/>
      <stop offset=".68" stop-color="#002d67"/>
      <stop offset=".72" stop-color="#004175"/>
      <stop offset=".77" stop-color="#005685"/>
      <stop offset=".83" stop-color="#006691"/>
      <stop offset=".9" stop-color="#006f97"/>
      <stop offset="1" stop-color="#00729a"/>
    </radialGradient>
  </defs>
  <g>
    <polygon points="211.87 13.19 184.12 74.56 175.89 13.19 154.49 13.19 129.68 100.54 129.69 100.54 152.26 100.54 164.96 54.46 169.07 100.54 190.47 100.54 209.52 53.51 207.64 100.54 229.62 100.54 233.03 13.19 211.87 13.19" fill="#fff" stroke-width="0"/>
    <path d="m271.82,13.19l-39.74,87.35h23.4l5.64-13.87h26.22l1.29,13.87h23.63l-11.99-87.35h-28.45Zm-2.24,53.02l13.17-33.62,2.47,33.62h-15.64Z" fill="#fff" stroke-width="0"/>
    <path d="m483.31,13.19h-25.16l-18.18,25.86-11.91-25.86h-47.5l-18.18,25.87-11.91-25.87h-24.81l20.52,43.01-33.92,44.34h25.16l17.7-25.12,11.45,25.12h48.44l17.7-25.12,11.45,25.12h24.7l-20.04-42.45,34.49-44.9Zm-92.58,86.2l-19.49-41.3,32.96-42.91,19.58,41.02-33.04,43.2Z" fill="#fff" stroke-width="0"/>
  </g>
  <g>
    <path d="m134.33,127.59c-.27-.11-.49-.3-.65-.57-.16-.27-.24-.66-.24-1.15v-2.9l8.33-.23v-3.32l-8.33-.23v-3.04c0-.59.16-1.03.48-1.31.32-.29.77-.43,1.36-.43h7.84v-3.52c-.72-.07-1.52-.13-2.39-.18s-1.86-.09-2.94-.13c-1.08-.04-2.34-.06-3.76-.06-.55,0-1.11.08-1.68.23-.57.15-1.09.41-1.56.77-.48.36-.85.86-1.14,1.48-.29.62-.43,1.4-.43,2.33v11.74c0,1.08.18,1.92.53,2.54.35.62.8,1.08,1.34,1.38.54.3,1.1.5,1.69.58.58.09,1.11.13,1.56.13h.01c.93,0,1.91-.02,2.94-.06,1.03-.04,2.06-.08,3.07-.14s1.94-.13,2.77-.23v-3.52h-7.93c-.31,0-.6-.06-.87-.16Z" fill="#00afc7" stroke-width="0"/>
    <polygon points="165.34 124.4 156.53 110.53 153.15 110.53 153.15 131.56 153.16 131.56 157.39 131.56 157.39 117.69 166.17 131.56 169.55 131.56 169.55 110.53 165.34 110.53 165.34 124.4" fill="#00afc7" stroke-width="0"/>
    <path d="m184.93,127.59c-.27-.11-.49-.3-.65-.57-.16-.27-.24-.66-.24-1.15v-2.9l8.33-.23v-3.32l-8.33-.23v-3.04c0-.59.16-1.03.48-1.31.32-.29.77-.43,1.36-.43h7.84v-3.52c-.72-.07-1.52-.13-2.39-.18s-1.86-.09-2.94-.13c-1.08-.04-2.34-.06-3.76-.06-.55,0-1.11.08-1.68.23-.57.15-1.09.41-1.56.77-.48.36-.85.86-1.14,1.48-.29.62-.43,1.4-.43,2.33v11.74c0,1.08.18,1.92.53,2.54s.8,1.08,1.34,1.38c.54.3,1.1.5,1.69.58.58.09,1.11.13,1.56.13h0c.93,0,1.91-.02,2.94-.06s2.06-.08,3.07-.14,1.94-.13,2.77-.23v-3.52h-7.93c-.31,0-.6-.06-.87-.16Z" fill="#00afc7" stroke-width="0"/>
    <path d="m216.19,122.47c.4-.26.76-.61,1.07-1.05s.56-1,.75-1.68c.18-.68.28-1.5.28-2.47,0-1.36-.16-2.48-.47-3.35-.31-.88-.74-1.56-1.29-2.05-.55-.5-1.18-.84-1.9-1.04-.72-.2-1.5-.3-2.33-.3h-8.69v21.03h4.2v-7.84c.24.03.52.03.82.03h.91c.31,0,.61.01.9.01.29.01.55.01.78.01l3.38,7.79h4.29l-3.92-8.44c.41-.17.82-.38,1.22-.65Zm-2.27-3.67c-.13.4-.3.71-.53.95s-.5.41-.8.5c-.3.09-.64.14-1.02.14h-3.75v-6.07h3.75c.38,0,.72.04,1.02.13.31.08.57.23.8.45.23.22.41.52.53.91s.18.87.18,1.46c0,.62-.06,1.13-.18,1.53Z" fill="#00afc7" stroke-width="0"/>
    <path d="m240.6,119.54c-.55,0-1.12,0-1.72.04-.6.03-1.17.06-1.72.1-.55.04-1.02.08-1.42.14v3.32h3.78v4.09c-.44.14-1.01.27-1.72.4s-1.45.2-2.23.2c-.68,0-1.26-.1-1.72-.3-.46-.2-.84-.55-1.12-1.05-.28-.5-.49-1.19-.61-2.06s-.18-1.99-.18-3.35c0-1.76.11-3.15.34-4.16.22-1.01.64-1.73,1.26-2.16.61-.43,1.52-.64,2.71-.64.87,0,1.72.02,2.53.07.82.05,1.56.1,2.22.16.66.06,1.19.11,1.59.17v-3.24c-.72-.19-1.44-.36-2.16-.5-.72-.15-1.48-.26-2.29-.33s-1.69-.11-2.66-.11c-1.59,0-2.9.24-3.91.72-1.02.48-1.8,1.18-2.36,2.1-.56.92-.95,2.04-1.17,3.37-.22,1.33-.33,2.91-.33,4.52s.09,3.07.28,4.38c.18,1.31.52,2.43.99,3.37.48.94,1.14,1.66,1.98,2.16.84.5,1.92.75,3.25.75h.02c1.18,0,2.27-.19,3.27-.55s1.78-.7,2.33-1.02l.57,1.42h3.15v-11.93c-.4-.04-.84-.06-1.32-.07-.48,0-1.02,0-1.63,0Z" fill="#00afc7" stroke-width="0"/>
    <polygon points="261.18 120.91 257.03 110.54 252.65 110.54 258.99 125.2 258.99 131.56 263.2 131.56 263.2 125.2 269.51 110.54 265.3 110.54 261.18 120.91" fill="#00afc7" stroke-width="0"/>
    <path d="m303.98,119.81c-.82-.47-1.87-.7-3.14-.7h-2.07c-.82,0-1.43-.16-1.85-.48-.41-.32-.62-.85-.62-1.59v-.57c0-.63.14-1.11.4-1.45.26-.34.65-.58,1.15-.7s1.08-.18,1.72-.18c.91,0,1.9.02,2.97.08s2.04.11,2.91.17v-3.32c-.51-.12-1.12-.23-1.83-.33-.71-.1-1.45-.19-2.22-.27-.77-.07-1.54-.11-2.32-.11-2.18,0-3.86.47-5.03,1.42-1.17.95-1.76,2.44-1.76,4.49v1.02c0,2.12.54,3.62,1.61,4.5s2.61,1.32,4.62,1.32h1.79c.69,0,1.21.17,1.58.5.37.34.55.82.55,1.44v.77c0,.55-.14.98-.43,1.29s-.69.53-1.21.65c-.52.13-1.16.19-1.86.19s-1.44,0-2.22-.03c-.77-.01-1.52-.04-2.24-.08-.72-.04-1.36-.08-1.93-.14v3.32c.44.12.92.22,1.45.3.53.09,1.09.16,1.69.23.59.06,1.18.11,1.76.14.58.03,1.14.04,1.69.04,1.46,0,2.73-.16,3.82-.47,1.09-.32,1.94-.91,2.56-1.78.61-.87.92-2.13.92-3.78v-1.19c0-1.04-.2-1.97-.61-2.78-.41-.82-1.03-1.46-1.85-1.92Z" fill="#00afc7" stroke-width="0"/>
    <path d="m321.47,127.59c-.27-.11-.49-.3-.65-.57-.16-.27-.24-.66-.24-1.15v-2.9l8.33-.23v-3.32l-8.33-.23v-3.04c0-.59.16-1.02.48-1.31.32-.29.77-.43,1.36-.43h7.84v-3.52c-.72-.07-1.52-.13-2.39-.18s-1.85-.09-2.94-.13c-1.09-.04-2.35-.06-3.77-.06-.55,0-1.11.08-1.68.23-.56.15-1.09.41-1.56.77-.48.36-.85.86-1.14,1.48-.29.62-.43,1.4-.43,2.33v11.74c0,1.08.18,1.92.53,2.54.35.62.8,1.08,1.34,1.38.54.3,1.1.5,1.69.58.58.09,1.1.13,1.56.13h.02c.93,0,1.91-.02,2.94-.06,1.03-.04,2.06-.08,3.07-.14,1.01-.06,1.94-.13,2.77-.23v-3.52h-7.93c-.31,0-.6-.06-.87-.16Z" fill="#00afc7" stroke-width="0"/>
    <path d="m352.73,122.47c.4-.26.76-.61,1.07-1.05s.56-1,.75-1.68.28-1.5.28-2.47c0-1.36-.16-2.48-.47-3.35-.31-.88-.74-1.56-1.29-2.05-.55-.5-1.18-.84-1.9-1.04-.72-.2-1.5-.3-2.33-.3h-8.7v21.03h4.21v-7.84c.24.03.52.03.82.03h.91c.31,0,.61.01.9.01.29.01.55.01.78.01l3.38,7.79h4.29l-3.92-8.44c.41-.17.82-.38,1.22-.65Zm-2.29-3.67c-.13.4-.3.71-.53.95-.22.24-.49.41-.79.5-.3.09-.64.14-1.02.14h-3.75v-6.07h3.75c.38,0,.72.04,1.02.13.3.08.56.23.79.45.23.22.41.52.53.91s.18.87.18,1.46c0,.62-.06,1.13-.18,1.53Z" fill="#00afc7" stroke-width="0"/>
    <polygon points="372.71 127.01 367.79 110.53 363.44 110.53 370.03 131.56 370.05 131.56 375.36 131.56 381.95 110.53 377.63 110.53 372.71 127.01" fill="#00afc7" stroke-width="0"/>
    <rect x="391.06" y="110.53" width="4.21" height="21.03" fill="#00afc7" stroke-width="0"/>
    <path d="m413.74,127.96c-.86,0-1.56-.1-2.12-.3s-1-.55-1.32-1.05c-.33-.5-.56-1.21-.7-2.12-.14-.91-.21-2.01-.21-3.47s.08-2.64.24-3.55c.16-.91.41-1.61.74-2.09.34-.48.78-.81,1.34-.99.56-.18,1.22-.27,2.03-.27s1.59.02,2.33.07c.73.04,1.39.1,1.97.18s1.04.15,1.38.23v-3.27c-.46-.17-1.02-.33-1.68-.47-.66-.14-1.41-.27-2.23-.37-.83-.11-1.71-.16-2.66-.16-1.19,0-2.26.15-3.21.45-.95.31-1.76.84-2.42,1.61-.66.77-1.17,1.85-1.52,3.24-.36,1.4-.53,3.1-.53,5.36s.17,4.09.5,5.5c.33,1.41.83,2.49,1.48,3.25.66.76,1.45,1.28,2.39,1.56.93.29,2.02.43,3.25.43h.01c.98,0,1.88-.03,2.67-.1.8-.06,1.53-.16,2.19-.28.66-.12,1.25-.27,1.76-.44v-3.24c-.55.08-1.27.14-2.17.2s-2.07.09-3.51.09Z" fill="#00afc7" stroke-width="0"/>
    <path d="m434.02,127.59c-.27-.11-.49-.3-.65-.57-.16-.27-.24-.66-.24-1.15v-2.9l8.33-.23v-3.32l-8.33-.23v-3.04c0-.59.16-1.02.48-1.31.32-.29.77-.43,1.36-.43h7.84v-3.52c-.72-.07-1.52-.13-2.39-.18s-1.85-.09-2.94-.13c-1.09-.04-2.35-.06-3.77-.06-.55,0-1.11.08-1.68.23-.56.15-1.09.41-1.56.77-.48.36-.85.86-1.14,1.48-.29.62-.43,1.4-.43,2.33v11.74c0,1.08.18,1.92.53,2.54.35.62.8,1.08,1.34,1.38.54.3,1.1.5,1.69.58.58.09,1.1.13,1.56.13h.02c.93,0,1.91-.02,2.94-.06,1.03-.04,2.06-.08,3.07-.14s1.94-.13,2.77-.23v-3.52h-7.93c-.31,0-.6-.06-.87-.16Z" fill="#00afc7" stroke-width="0"/>
    <path d="m465.71,121.73c-.41-.82-1.03-1.46-1.85-1.92-.82-.47-1.87-.7-3.14-.7h-2.07c-.82,0-1.43-.16-1.85-.48-.41-.32-.62-.85-.62-1.59v-.57c0-.63.14-1.11.4-1.45.26-.34.65-.58,1.15-.7s1.08-.18,1.72-.18c.91,0,1.9.02,2.97.08s2.04.11,2.91.17v-3.32c-.51-.12-1.12-.23-1.83-.33-.71-.1-1.45-.19-2.22-.27-.77-.07-1.54-.11-2.32-.11-2.18,0-3.86.47-5.03,1.42-1.17.95-1.76,2.44-1.76,4.49v1.02c0,2.12.54,3.62,1.61,4.5s2.61,1.32,4.62,1.32h1.79c.69,0,1.21.17,1.58.5.37.34.55.82.55,1.44v.77c0,.55-.14.98-.43,1.29s-.69.53-1.21.65c-.52.13-1.16.19-1.86.19s-1.44,0-2.22-.03c-.77-.01-1.52-.04-2.24-.08-.72-.04-1.36-.08-1.93-.14v3.32c.44.12.92.22,1.45.3.53.09,1.09.16,1.69.23.59.06,1.18.11,1.76.14.58.03,1.14.04,1.69.04,1.46,0,2.73-.16,3.82-.47,1.09-.32,1.94-.91,2.56-1.78.61-.87.92-2.13.92-3.78v-1.19c0-1.04-.2-1.97-.61-2.78Z" fill="#00afc7" stroke-width="0"/>
  </g>
  <g>
    <path d="m92.91,66.27h0c-.06-.08-.11-.15-.16-.22-.46-.67-.94-1.33-1.43-1.98C61.71,23.17,58.67,10.17,58.67,10.17h-.03c-.68-2.02-2.57-3.49-4.82-3.49s-4.14,1.46-4.82,3.48h-.02s-3.04,13-32.63,53.87c-.53.69-1.04,1.4-1.54,2.12-.03.04-.05.07-.08.11h0c-5.09,7.52-8.05,16.6-8.05,26.36,0,26.03,21.11,47.14,47.14,47.14s47.14-21.11,47.14-47.14c0-9.77-2.97-18.84-8.05-26.36h0Z" fill="#e2e2e2" stroke-width="0"/>
    <path d="m53.83,146.46C24.15,146.46,0,122.31,0,92.63c0-10.79,3.18-21.2,9.2-30.11l.13-.19c.53-.78,1.08-1.53,1.65-2.28C38.66,21.82,44.92,5.82,44.92,5.82c.95-4.26,5.41-5.82,8.9-5.82s7.27,1.56,8.95,5.88c0,0,6.22,15.94,33.91,54.2.52.69,1.03,1.39,1.53,2.11l.24.34c6.02,8.91,9.2,19.32,9.2,30.11,0,29.68-24.15,53.83-53.83,53.83h.01Zm0-130.11c-2.97,6.99-10.96,22.47-32.06,51.61l-.1.14c-.45.59-.9,1.2-1.32,1.82l-.12.17c-4.46,6.61-6.85,14.43-6.85,22.54,0,22.31,18.15,40.45,40.45,40.45s40.45-18.15,40.45-40.45c0-8.09-2.38-15.9-6.88-22.58l-.16-.23c-.4-.58-.81-1.14-1.23-1.7l-.1-.13c-21.11-29.16-29.11-44.64-32.08-51.64Z" fill="#e2e2e2" stroke-width="0"/>
  </g>
  <path d="m92.91,66.27h0c-.06-.08-.11-.15-.16-.22-.46-.67-.94-1.33-1.43-1.98C61.71,23.17,58.67,10.17,58.67,10.17h-.03c-.68-2.02-2.57-3.49-4.82-3.49s-4.14,1.46-4.82,3.48h-.02s-3.04,13-32.63,53.87c-.53.69-1.04,1.4-1.54,2.12-.03.04-.05.07-.08.11h0c-5.09,7.52-8.05,16.6-8.05,26.36,0,26.03,21.11,47.14,47.14,47.14s47.14-21.11,47.14-47.14c0-9.77-2.97-18.84-8.05-26.36h0Z" fill="url(#radial-gradient)" stroke-width="0"/>
  <path d="m73.07,135.66c-28.38-47.77-30.55-90.8-25.05-122.74-2.28,5.63-9.57,20.6-31.66,51.12-.53.69-1.04,1.4-1.54,2.12-.03.04-.05.07-.08.11h0c-5.09,7.52-8.05,16.6-8.05,26.36,0,26.03,21.11,47.14,47.14,47.14,6.86,0,13.36-1.48,19.24-4.11Z" fill="#002463" stroke-width="0"/>
  <path d="m100.97,92.63c0-9.77-2.97-18.84-8.05-26.36h0c-.06-.08-.11-.15-.16-.22-.46-.67-.94-1.33-1.43-1.98-8.08-11.16-14.16-20.22-18.76-27.53-13.72,42.5-37.38,66.35-59.5,79.74,8.16,14.04,23.36,23.49,40.77,23.49,26.03,0,47.14-21.11,47.14-47.14h0Z" fill="url(#radial-gradient-2)" isolation="isolate" opacity=".51" stroke-width="0"/>
</svg>